<?xml version="1.0" standalone="no"?>
<!DOCTYPE svg PUBLIC "-//W3C//DTD SVG 20010904//EN"
 "http://www.w3.org/TR/2001/REC-SVG-20010904/DTD/svg10.dtd">
<svg version="1.0" xmlns="http://www.w3.org/2000/svg"
 width="1563.000000pt" height="1563.000000pt" viewBox="0 0 1563.000000 1563.000000"
 preserveAspectRatio="xMidYMid meet">

<g transform="translate(0.000000,1563.000000) scale(0.100000,-0.100000)"
fill="#000000" stroke="none">
<path d="M9210 12563 c-36 -6 -135 -57 -133 -68 2 -6 38 -13 80 -17 225 -20
425 -130 659 -363 143 -143 241 -283 338 -485 91 -190 146 -381 187 -655 19
-123 16 -462 -4 -562 -82 -406 -232 -746 -441 -995 -64 -77 -166 -165 -246
-212 -31 -18 -93 -61 -140 -95 -83 -62 -210 -131 -312 -172 -29 -11 -161 -52
-295 -90 -133 -38 -265 -78 -293 -89 -66 -26 -66 -12 -1 72 26 35 51 73 55 85
10 30 -25 63 -65 63 -55 0 -172 -32 -267 -72 -51 -22 -96 -37 -99 -34 -4 4 4
41 17 84 32 105 35 141 16 205 -51 175 -208 117 -556 -203 -63 -58 -128 -115
-143 -127 l-28 -22 -67 43 c-106 67 -360 215 -400 232 -60 25 -193 54 -250 54
-187 0 -208 -144 -47 -318 30 -33 55 -62 55 -64 0 -3 -20 -8 -45 -12 -91 -12
-103 -39 -66 -149 l19 -56 -56 -6 c-31 -3 -112 -15 -180 -25 l-123 -19 -132
34 c-456 115 -488 125 -617 191 -472 239 -811 603 -989 1059 -113 289 -148
514 -122 780 33 324 106 551 299 928 78 151 110 203 164 263 36 41 76 94 87
117 l21 42 -21 3 c-11 2 -53 -12 -92 -31 -128 -61 -312 -213 -405 -336 -31
-42 -84 -110 -118 -152 -310 -386 -504 -786 -588 -1214 -31 -162 -43 -267 -52
-465 -6 -151 -6 -160 25 -299 76 -339 191 -625 351 -871 207 -318 523 -611
880 -817 114 -66 143 -76 336 -124 209 -51 222 -55 203 -74 -8 -7 -115 -36
-239 -64 -853 -194 -895 -209 -1114 -395 -162 -139 -249 -276 -443 -706 -131
-290 -176 -368 -279 -486 -53 -61 -96 -120 -100 -137 -8 -39 15 -69 104 -133
59 -43 89 -56 184 -82 188 -52 290 -65 478 -59 133 4 184 10 262 30 264 69
462 189 693 421 67 67 149 158 184 204 35 46 65 81 67 79 3 -2 -11 -65 -30
-138 -77 -295 -106 -513 -106 -799 -1 -228 8 -330 46 -524 45 -230 146 -499
263 -696 52 -88 289 -331 414 -424 486 -361 1134 -570 1975 -636 164 -13 253
-5 480 40 770 156 1557 571 2044 1079 105 109 199 253 329 506 126 243 202
456 251 698 20 96 23 143 23 322 0 212 -10 293 -50 428 -8 28 -13 52 -10 55 2
2 32 -20 65 -51 126 -114 291 -169 563 -188 89 -6 190 -9 223 -6 141 13 560
197 685 301 70 57 108 123 95 163 -3 11 -38 45 -76 78 -98 81 -296 288 -382
398 -99 128 -222 316 -368 567 -113 194 -134 224 -225 318 -129 134 -230 210
-369 276 -114 55 -214 86 -346 106 -74 11 -419 29 -577 30 -99 0 -105 10 -38
64 25 21 84 85 133 144 48 58 108 129 133 157 25 27 82 104 126 170 278 417
459 843 528 1240 70 408 29 917 -102 1255 -146 376 -348 697 -531 843 -36 29
-101 88 -146 133 -201 199 -580 384 -925 448 -75 15 -227 19 -291 9z m460
-130 c437 -126 819 -423 1101 -855 86 -132 220 -410 274 -567 54 -159 72 -274
83 -526 9 -194 8 -240 -9 -410 -35 -362 -102 -626 -211 -835 -312 -598 -618
-1013 -816 -1108 -38 -19 -57 -22 -102 -17 -87 10 -250 69 -440 159 -171 82
-266 118 -342 132 -21 3 -38 10 -38 15 0 4 17 11 38 15 222 38 354 89 399 153
12 17 12 28 3 56 -20 62 -114 119 -269 166 -45 13 -81 29 -81 34 0 6 39 28 86
50 363 163 696 509 917 951 76 153 150 405 171 585 54 460 -20 874 -232 1294
-134 268 -514 680 -653 710 -16 4 -29 13 -29 22 0 17 17 14 150 -24z m-4890
-847 c0 -2 -25 -57 -56 -122 -216 -459 -303 -771 -304 -1087 0 -217 28 -367
118 -622 52 -147 81 -204 194 -372 299 -448 748 -774 1193 -867 157 -33 284
-66 289 -75 3 -4 -38 -33 -89 -64 -162 -100 -233 -178 -238 -264 -2 -36 -1
-36 48 -49 67 -18 168 -17 352 2 101 11 161 14 175 7 20 -9 19 -11 -19 -41
-40 -31 -403 -241 -474 -274 -20 -9 -64 -39 -98 -68 -77 -64 -111 -83 -127
-69 -6 5 -49 16 -95 23 -413 68 -773 255 -1085 563 -208 205 -385 473 -513
775 -112 264 -160 526 -147 796 25 508 187 976 471 1357 45 61 90 124 100 140
36 57 143 190 187 231 62 59 118 97 118 80z m3421 -2413 c27 -69 -7 -212 -76
-327 -36 -60 -37 -78 -3 -93 17 -8 43 2 132 50 61 33 141 70 177 82 72 25 149
40 149 30 0 -19 -39 -75 -91 -131 -53 -57 -79 -98 -79 -124 0 -4 11 -15 25
-24 23 -15 29 -14 123 23 251 100 411 141 555 142 108 0 172 -11 256 -45 57
-23 165 -88 176 -107 9 -13 -17 -48 -50 -69 -47 -28 -206 -77 -361 -109 -151
-32 -194 -45 -194 -60 0 -5 9 -19 19 -32 18 -22 29 -24 143 -30 143 -6 204
-25 343 -102 117 -66 214 -161 244 -241 36 -96 35 -97 -56 -75 -43 9 -79 16
-81 14 -2 -2 1 -12 7 -23 18 -33 14 -35 -46 -29 -55 6 -111 23 -268 82 -38 15
-100 29 -137 32 -67 6 -68 5 -68 -18 0 -18 21 -41 86 -93 171 -138 254 -247
239 -314 -6 -29 -7 -29 -50 -21 -24 4 -75 24 -113 43 -101 51 -259 164 -266
189 -4 18 -17 25 -70 35 -90 17 -99 16 -93 -8 3 -11 1 -20 -4 -20 -24 0 -79
31 -122 69 -27 22 -55 41 -62 41 -22 0 -35 -33 -35 -87 0 -26 -4 -53 -8 -59
-4 -6 -41 -15 -83 -18 l-76 -7 -22 35 c-13 20 -36 62 -52 94 -29 60 -62 87
-95 80 -15 -2 -22 -21 -35 -90 -28 -153 -54 -188 -142 -188 -91 0 -150 69
-169 198 -10 72 -14 83 -34 88 -36 9 -59 -11 -97 -83 -51 -96 -60 -107 -85
-99 -29 9 -35 37 -33 135 1 66 -2 88 -15 102 -24 27 -58 24 -72 -5 -19 -43
-201 -244 -238 -264 -18 -10 -19 -5 -16 93 3 99 2 103 -19 108 -12 3 -28 3
-35 -1 -7 -4 -47 -56 -90 -117 -216 -306 -435 -529 -606 -615 -74 -37 -182
-69 -194 -58 -12 13 21 98 71 183 30 50 57 102 61 118 6 27 6 27 -46 27 -39 0
-83 -12 -178 -51 -69 -28 -147 -53 -173 -56 -41 -5 -48 -3 -53 15 -10 32 12
100 52 162 55 85 259 282 450 435 137 109 172 142 170 159 -2 17 -11 22 -50
24 -26 2 -62 -4 -83 -13 -64 -26 -336 -57 -472 -53 -67 1 -124 6 -127 9 -3 3
-1 22 5 43 14 52 88 123 174 168 188 98 527 164 745 146 29 -3 35 0 38 19 3
17 -12 32 -70 71 -41 27 -80 57 -88 67 -13 15 -12 19 9 36 29 24 47 24 141 -1
41 -11 94 -20 118 -20 37 0 42 3 42 23 0 18 -17 31 -88 67 -99 50 -163 108
-210 191 -38 67 -41 108 -9 145 21 24 30 27 83 26 157 -2 495 -171 641 -319
82 -84 90 -81 220 80 174 214 250 280 372 323 88 31 109 31 122 -3z m1639
-1118 c47 -8 198 -19 335 -25 619 -26 718 -36 892 -86 100 -29 245 -95 320
-145 105 -71 236 -248 523 -709 264 -424 330 -510 509 -670 78 -69 141 -130
141 -137 0 -53 -198 -176 -451 -278 -179 -72 -329 -83 -528 -39 -156 34 -303
85 -436 150 -61 30 -116 54 -122 54 -6 0 -32 50 -58 111 -87 200 -204 385
-461 730 -91 122 -168 228 -171 236 -4 9 14 33 46 62 43 39 51 53 51 82 0 47
-47 120 -121 189 -60 56 -70 81 -49 120 8 14 16 17 42 11 74 -17 131 -65 343
-289 92 -98 204 -153 425 -210 85 -22 167 -45 182 -51 38 -14 78 -78 185 -296
87 -179 100 -199 158 -254 91 -85 150 -123 200 -129 36 -4 45 -1 58 19 16 22
15 23 -49 62 -137 82 -242 224 -339 457 -90 217 -81 209 -250 235 -210 33
-302 66 -410 148 -22 17 -105 94 -185 172 -226 220 -254 238 -342 215 -85 -23
-121 -84 -98 -166 10 -36 24 -54 70 -89 66 -53 95 -89 108 -138 9 -32 8 -37
-13 -51 -59 -39 -59 -39 -221 136 -229 246 -279 310 -340 428 -34 68 -58 160
-41 160 7 0 50 -7 97 -15z m-483 -156 c159 -50 236 -69 289 -69 39 0 46 -6
220 -182 494 -501 837 -993 1054 -1515 55 -130 70 -215 77 -418 17 -507 -163
-1033 -508 -1487 -80 -104 -132 -154 -283 -273 -546 -430 -1161 -743 -1664
-849 -236 -50 -325 -57 -532 -41 -826 65 -1495 270 -1957 601 -147 106 -233
186 -309 286 -394 526 -497 1273 -287 2093 69 270 156 498 292 760 140 273
258 444 339 496 54 34 159 69 207 69 l33 0 -44 -85 c-63 -123 -59 -163 22
-185 89 -25 218 17 348 114 141 106 316 289 464 484 30 40 60 71 66 69 6 -2
13 -18 17 -36 8 -39 36 -71 61 -71 37 0 76 30 171 129 93 99 107 111 107 91 0
-24 44 -123 67 -150 19 -23 33 -30 61 -30 29 0 43 8 79 45 23 25 46 45 50 45
5 -1 25 -28 45 -60 42 -68 105 -114 168 -124 22 -3 40 -9 40 -12 0 -3 -29 -38
-63 -78 -136 -153 -249 -350 -298 -518 -12 -43 -25 -78 -30 -78 -4 0 -64 34
-135 76 -170 101 -256 135 -361 142 -94 6 -182 -10 -239 -42 -46 -26 -141
-150 -177 -232 -48 -109 -61 -178 -60 -319 1 -136 13 -200 64 -332 13 -34 21
-65 17 -68 -13 -13 -87 36 -143 96 -31 35 -100 127 -153 206 -52 78 -99 140
-103 137 -18 -11 -8 -73 21 -130 19 -38 74 -106 153 -190 133 -143 158 -177
139 -196 -23 -23 -113 28 -286 166 -20 16 -39 26 -43 22 -15 -14 20 -85 66
-133 64 -67 112 -97 208 -129 43 -14 79 -27 81 -29 2 -2 -23 -21 -55 -43 -74
-51 -233 -214 -310 -318 -69 -93 -135 -223 -158 -309 -53 -199 -14 -426 107
-632 78 -133 244 -254 553 -404 77 -37 155 -82 174 -100 51 -49 96 -126 150
-259 28 -66 60 -135 73 -153 126 -181 340 -334 560 -401 177 -53 275 -70 423
-69 174 1 272 21 388 79 130 65 200 114 295 208 103 100 160 178 213 291 60
129 89 254 96 417 l6 137 81 50 c123 76 237 171 396 332 132 133 150 156 192
241 83 168 113 305 105 481 -8 172 -52 306 -150 452 -101 151 -339 342 -456
366 -101 21 -101 19 3 122 76 75 100 108 135 177 48 97 60 169 41 240 l-12 45
-22 -70 c-34 -105 -88 -214 -137 -275 -57 -72 -62 -48 -13 62 37 83 37 84 38
223 0 109 -4 153 -18 200 -24 77 -31 60 -40 -95 -16 -277 -61 -408 -177 -508
l-25 -22 6 47 c3 27 14 62 23 80 23 43 24 316 2 453 -58 356 -227 595 -490
695 -63 23 -80 34 -77 48 4 21 22 21 119 1 104 -21 154 -42 325 -135 143 -78
257 -129 286 -129 8 0 29 7 48 16 25 12 35 24 40 50 11 60 -44 146 -204 316
-60 63 -63 68 -39 68 14 0 84 -18 154 -41z m-3242 -191 c-91 -110 -175 -258
-175 -310 0 -82 -137 -377 -280 -600 l-75 -116 -23 21 c-12 12 -42 31 -65 42
-72 37 -82 84 -52 261 20 124 10 169 -45 196 -59 29 -72 24 -131 -49 -113
-139 -110 -137 -216 -170 -54 -18 -161 -48 -238 -68 -171 -44 -231 -71 -287
-127 -54 -54 -118 -176 -153 -293 -33 -108 -87 -219 -147 -300 -62 -84 -156
-183 -190 -201 -65 -33 7 -79 78 -49 121 50 232 221 410 629 60 139 74 162
105 182 49 31 185 76 341 112 170 40 258 81 302 141 38 51 84 97 90 90 3 -2
-5 -47 -15 -99 -37 -174 -11 -270 87 -329 33 -21 68 -34 93 -34 l39 -2 -25
-65 c-32 -87 -48 -109 -91 -127 -55 -22 -80 -50 -97 -109 -34 -116 -167 -277
-365 -442 -197 -164 -297 -227 -420 -267 -224 -72 -439 -100 -590 -77 -198 30
-430 117 -430 163 0 32 36 96 126 221 71 98 96 145 164 305 189 443 287 602
470 767 147 132 199 161 392 215 228 65 462 123 623 156 233 47 385 113 550
238 87 66 92 68 136 63 l47 -5 37 55 c29 45 71 79 103 84 1 0 -36 -46 -83
-102z m2175 37 c13 -14 22 -27 19 -29 -2 -2 -28 -16 -57 -30 l-54 -27 8 23 c8
26 46 88 55 88 3 0 16 -11 29 -25z m342 -96 c96 -20 152 -54 231 -140 114
-124 180 -247 229 -427 17 -64 21 -107 22 -247 0 -176 -4 -205 -55 -361 -28
-87 -83 -128 -294 -222 -60 -27 -145 -71 -188 -100 -98 -64 -134 -76 -206 -68
-137 16 -224 18 -321 7 -142 -15 -323 -47 -488 -84 l-137 -32 -85 21 c-47 12
-133 29 -192 37 -59 9 -125 25 -146 36 -54 28 -105 88 -151 178 -48 96 -65
188 -65 348 1 229 66 369 202 437 70 34 217 32 325 -5 119 -41 235 -104 292
-158 56 -53 76 -58 128 -33 32 15 35 20 40 78 30 320 327 663 632 731 75 17
159 18 227 4z m616 -1384 c69 -7 174 -46 259 -97 62 -37 185 -155 251 -240 85
-111 152 -320 152 -479 0 -311 -181 -580 -611 -906 -52 -40 -100 -73 -106 -73
-5 0 -18 18 -28 40 -22 49 -35 43 -35 -16 0 -25 -7 -61 -15 -81 -19 -44 -19
-43 5 -43 23 0 24 -8 9 -117 -47 -354 -233 -639 -509 -782 -235 -121 -442
-135 -775 -50 -119 30 -291 117 -343 173 -23 25 -46 46 -51 46 -20 0 -65 47
-113 117 -67 100 -174 321 -194 403 l-16 65 -110 50 c-259 117 -455 238 -575
355 -276 267 -253 644 66 1048 78 98 145 155 238 201 109 54 168 64 343 58
196 -7 351 -39 393 -81 19 -19 36 -26 55 -24 25 3 27 7 30 50 3 40 7 49 25 53
116 27 169 36 277 49 127 15 290 22 434 18 l78 -2 -26 -34 -26 -35 26 -20 c41
-32 64 -26 119 30 97 98 264 213 384 263 107 45 250 78 306 70 11 -2 48 -6 83
-9z"/>
<path d="M8253 6679 c-52 -15 -86 -70 -91 -145 -3 -37 1 -77 8 -93 13 -32 63
-61 104 -61 62 0 143 54 166 111 41 98 -80 219 -187 188z"/>
<path d="M7465 6476 c-17 -7 -45 -30 -63 -50 -58 -66 -37 -162 44 -201 100
-48 214 13 214 115 0 45 -31 113 -61 134 -28 19 -92 20 -134 2z"/>
<path d="M8885 5886 c-105 -49 -223 -190 -272 -323 -27 -76 -30 -145 -7 -164
22 -18 30 -6 111 159 64 129 78 145 109 124 19 -12 32 -45 39 -97 4 -27 14
-65 21 -84 13 -32 16 -33 54 -27 22 3 58 9 80 12 30 5 47 15 64 38 64 85 71
147 28 266 -21 58 -34 79 -61 97 -44 30 -102 30 -166 -1z"/>
<path d="M6815 5597 c-139 -68 -199 -225 -131 -341 28 -48 87 -98 144 -122 26
-12 46 -12 100 -4 76 13 112 38 112 80 0 36 -19 90 -32 90 -18 0 -3 82 27 148
15 34 33 62 40 62 26 0 68 -45 112 -121 54 -93 61 -99 91 -88 18 7 22 16 22
49 0 38 -6 47 -87 128 -110 109 -158 135 -268 139 -69 4 -87 1 -130 -20z"/>
<path d="M8009 4431 l-23 -18 32 -41 c18 -22 32 -44 32 -50 0 -5 -16 -43 -35
-85 -40 -87 -46 -144 -15 -172 30 -27 61 -13 142 63 83 78 128 144 128 186 0
49 -9 55 -79 53 -63 -2 -64 -2 -101 41 -43 48 -49 49 -81 23z"/>
<path d="M8437 4083 c-8 -16 -20 -46 -27 -68 -31 -97 -148 -185 -228 -170 -60
11 -114 44 -179 111 -62 64 -95 78 -107 48 -29 -75 44 -144 219 -205 80 -28
92 -30 134 -19 128 32 241 142 241 235 0 32 -23 95 -35 95 -2 0 -11 -12 -18
-27z"/>
</g>
</svg>
